<svg fill="#F0EDE4" viewBox="0 0 32 32" version="1.1" xmlns="http://www.w3.org/2000/svg"><g id="SVGRepo_bgCarrier" stroke-width="0"></g><g id="SVGRepo_tracerCarrier" stroke-linecap="round" stroke-linejoin="round"></g><g id="SVGRepo_iconCarrier"> <title>arrows-up-left-bottom-right</title> <path d="M26.65 18.828c0-0.414-0.336-0.75-0.75-0.75s-0.75 0.336-0.75 0.75v0 5.26l-17.239-17.238h5.261c0.414 0 0.75-0.336 0.75-0.75s-0.336-0.75-0.75-0.75v0h-7.071c-0.099 0.001-0.193 0.021-0.279 0.057l0.005-0.002-0.013 0.001-0.002 0.002c-0.121 0.056-0.221 0.138-0.295 0.241l-0.002 0.002c-0.017 0.022-0.035 0.048-0.050 0.074l-0.002 0.003c-0.067 0.105-0.109 0.233-0.112 0.37l-0 0.001v7.071c0 0.414 0.336 0.75 0.75 0.75s0.75-0.336 0.75-0.75v0-5.261l17.237 17.239h-5.26c-0.414 0-0.75 0.336-0.75 0.75s0.336 0.75 0.75 0.75v0h7.072c0.104-0.001 0.202-0.021 0.292-0.059l-0.005 0.002 0.002-0.002c0.091-0.039 0.17-0.092 0.236-0.158l-0 0 0.006-0.003 0.003-0.006c0.018-0.023 0.035-0.049 0.051-0.075l0.002-0.003c0.017-0.021 0.033-0.045 0.048-0.070l0.002-0.003c0.068-0.106 0.11-0.234 0.113-0.372l0-0.001z"></path> </g></svg>